<svg xmlns="http://www.w3.org/2000/svg" xmlns:xlink="http://www.w3.org/1999/xlink" width="443" zoomAndPan="magnify" viewBox="0 0 332.25 135.000003" height="180" preserveAspectRatio="xMidYMid meet" version="1.0"><defs><g/><clipPath id="5256483ce9"><path d="M 5.902344 0 L 325.285156 0 L 325.285156 134 L 5.902344 134 Z M 5.902344 0 " clip-rule="nonzero"/></clipPath><clipPath id="03a471faad"><path d="M 165.714844 0 C 77.453125 0 5.902344 29.992188 5.902344 66.992188 C 5.902344 103.992188 77.453125 133.984375 165.714844 133.984375 C 253.980469 133.984375 325.53125 103.992188 325.53125 66.992188 C 325.53125 29.992188 253.980469 0 165.714844 0 Z M 165.714844 0 " clip-rule="nonzero"/></clipPath></defs><g clip-path="url(#5256483ce9)"><g clip-path="url(#03a471faad)"><path stroke-linecap="butt" transform="matrix(0.744485, 0, 0, 0.744485, 5.902502, 0.000401302)" fill="none" stroke-linejoin="miter" d="M 214.66152 -0.000539033 C 96.107505 -0.000539033 -0.000212776 40.285264 -0.000212776 89.984031 C -0.000212776 139.682797 96.107505 179.9686 214.66152 179.9686 C 333.220781 179.9686 429.328499 139.682797 429.328499 89.984031 C 429.328499 40.285264 333.220781 -0.000539033 214.66152 -0.000539033 Z M 214.66152 -0.000539033 " stroke="#f04a00" stroke-width="8" stroke-opacity="1" stroke-miterlimit="4"/></g></g><g fill="#f04a00" fill-opacity="1"><g transform="translate(20.023442, 80.467455)"><g><path d="M 32.125 -4.78125 L 32.125 -3.171875 C 32.125 -2.398438 32.195312 -1.78125 32.34375 -1.3125 C 32.5 -0.851562 32.796875 -0.414062 33.234375 0 L 21.859375 0 C 21.492188 -0.375 21.21875 -0.800781 21.03125 -1.28125 C 20.84375 -1.769531 20.75 -2.398438 20.75 -3.171875 L 20.75 -5.578125 C 20.75 -6.460938 20.613281 -7.050781 20.34375 -7.34375 C 20.082031 -7.632812 19.554688 -7.78125 18.765625 -7.78125 L 12.140625 -7.78125 L 12.140625 0 L 1.890625 0 L 1.890625 -25.453125 L 20.46875 -25.453125 C 23.519531 -25.453125 25.953125 -25.117188 27.765625 -24.453125 C 29.578125 -23.796875 30.890625 -22.890625 31.703125 -21.734375 C 32.515625 -20.585938 32.921875 -19.296875 32.921875 -17.859375 C 32.921875 -16.410156 32.570312 -15.222656 31.875 -14.296875 C 31.175781 -13.367188 30.285156 -12.648438 29.203125 -12.140625 C 28.128906 -11.628906 27.007812 -11.28125 25.84375 -11.09375 L 25.84375 -11.015625 C 28.09375 -10.785156 29.703125 -10.203125 30.671875 -9.265625 C 31.640625 -8.335938 32.125 -6.84375 32.125 -4.78125 Z M 12.140625 -14.265625 L 19.28125 -14.265625 C 20.519531 -14.265625 21.347656 -14.421875 21.765625 -14.734375 C 22.179688 -15.046875 22.390625 -15.492188 22.390625 -16.078125 C 22.390625 -16.660156 22.171875 -17.101562 21.734375 -17.40625 C 21.304688 -17.707031 20.476562 -17.859375 19.25 -17.859375 L 12.140625 -17.859375 Z M 12.140625 -14.265625 "/></g></g></g><g fill="#f04a00" fill-opacity="1"><g transform="translate(54.007957, 80.467455)"><g><path d="M 29.71875 0 L 1.890625 0 L 1.890625 -25.453125 L 29.265625 -25.453125 L 29.265625 -18.234375 L 12.140625 -18.234375 L 12.140625 -15.546875 L 28.171875 -15.546875 L 28.171875 -10.078125 L 12.140625 -10.078125 L 12.140625 -7.28125 L 29.71875 -7.28125 Z M 29.71875 0 "/></g></g></g><g fill="#f04a00" fill-opacity="1"><g transform="translate(84.820594, 80.467455)"><g><path d="M 29.71875 0 L 1.890625 0 L 1.890625 -25.453125 L 29.265625 -25.453125 L 29.265625 -18.234375 L 12.140625 -18.234375 L 12.140625 -15.546875 L 28.171875 -15.546875 L 28.171875 -10.078125 L 12.140625 -10.078125 L 12.140625 -7.28125 L 29.71875 -7.28125 Z M 29.71875 0 "/></g></g></g><g fill="#f04a00" fill-opacity="1"><g transform="translate(115.633231, 80.467455)"><g><path d="M 26.46875 0 L 1.890625 0 L 1.890625 -25.453125 L 12.6875 -25.453125 L 12.6875 -8.71875 L 26.46875 -8.71875 Z M 26.46875 0 "/></g></g></g><g fill="#f04a00" fill-opacity="1"><g transform="translate(142.611715, 80.467455)"><g><path d="M 16.140625 -10.78125 L 22 -25.453125 L 33.09375 -25.453125 L 22.140625 0 L 10.21875 0 L -0.96875 -25.453125 L 10.15625 -25.453125 Z M 16.140625 -10.78125 "/></g></g></g><g fill="#f04a00" fill-opacity="1"><g transform="translate(174.71402, 80.467455)"><g><path d="M 12.6875 -25.453125 L 12.6875 0 L 1.921875 0 L 1.921875 -25.453125 Z M 12.6875 -25.453125 "/></g></g></g><g fill="#f04a00" fill-opacity="1"><g transform="translate(189.318651, 80.467455)"><g><path d="M 0.5625 -8.96875 L 11.828125 -8.96875 C 11.921875 -8.570312 12.128906 -8.191406 12.453125 -7.828125 C 12.773438 -7.460938 13.347656 -7.175781 14.171875 -6.96875 C 15.003906 -6.757812 16.195312 -6.65625 17.75 -6.65625 C 19.375 -6.65625 20.582031 -6.726562 21.375 -6.875 C 22.164062 -7.03125 22.6875 -7.21875 22.9375 -7.4375 C 23.195312 -7.664062 23.328125 -7.882812 23.328125 -8.09375 C 23.328125 -8.25 23.265625 -8.410156 23.140625 -8.578125 C 23.015625 -8.742188 22.738281 -8.90625 22.3125 -9.0625 C 21.894531 -9.226562 21.253906 -9.378906 20.390625 -9.515625 C 19.535156 -9.660156 18.378906 -9.789062 16.921875 -9.90625 C 13.640625 -10.132812 10.960938 -10.472656 8.890625 -10.921875 C 6.828125 -11.378906 5.234375 -11.9375 4.109375 -12.59375 C 2.992188 -13.257812 2.222656 -14.039062 1.796875 -14.9375 C 1.367188 -15.832031 1.15625 -16.828125 1.15625 -17.921875 C 1.15625 -18.992188 1.421875 -20.015625 1.953125 -20.984375 C 2.484375 -21.960938 3.359375 -22.835938 4.578125 -23.609375 C 5.804688 -24.378906 7.429688 -24.984375 9.453125 -25.421875 C 11.472656 -25.867188 13.960938 -26.09375 16.921875 -26.09375 C 19.910156 -26.09375 22.441406 -25.832031 24.515625 -25.3125 C 26.585938 -24.800781 28.265625 -24.101562 29.546875 -23.21875 C 30.835938 -22.34375 31.800781 -21.332031 32.4375 -20.1875 C 33.082031 -19.050781 33.453125 -17.84375 33.546875 -16.5625 L 22.3125 -16.5625 C 22.25 -16.957031 22.0625 -17.320312 21.75 -17.65625 C 21.4375 -18 20.898438 -18.273438 20.140625 -18.484375 C 19.378906 -18.691406 18.289062 -18.796875 16.875 -18.796875 C 15.476562 -18.796875 14.421875 -18.722656 13.703125 -18.578125 C 12.984375 -18.441406 12.492188 -18.269531 12.234375 -18.0625 C 11.984375 -17.851562 11.859375 -17.632812 11.859375 -17.40625 C 11.859375 -17.21875 11.921875 -17.039062 12.046875 -16.875 C 12.171875 -16.71875 12.441406 -16.5625 12.859375 -16.40625 C 13.285156 -16.257812 13.925781 -16.109375 14.78125 -15.953125 C 15.644531 -15.804688 16.820312 -15.660156 18.3125 -15.515625 C 21.65625 -15.265625 24.375 -14.910156 26.46875 -14.453125 C 28.5625 -14.003906 30.171875 -13.441406 31.296875 -12.765625 C 32.421875 -12.085938 33.195312 -11.3125 33.625 -10.4375 C 34.0625 -9.570312 34.28125 -8.59375 34.28125 -7.5 C 34.28125 -6.445312 34.003906 -5.429688 33.453125 -4.453125 C 32.910156 -3.484375 32.003906 -2.613281 30.734375 -1.84375 C 29.472656 -1.082031 27.773438 -0.476562 25.640625 -0.03125 C 23.515625 0.40625 20.882812 0.625 17.75 0.625 C 14.59375 0.625 11.929688 0.378906 9.765625 -0.109375 C 7.597656 -0.597656 5.859375 -1.273438 4.546875 -2.140625 C 3.234375 -3.015625 2.265625 -4.03125 1.640625 -5.1875 C 1.015625 -6.351562 0.65625 -7.613281 0.5625 -8.96875 Z M 0.5625 -8.96875 "/></g></g></g><g fill="#f04a00" fill-opacity="1"><g transform="translate(224.313998, 80.467455)"><g><path d="M 12.6875 -25.453125 L 12.6875 0 L 1.921875 0 L 1.921875 -25.453125 Z M 12.6875 -25.453125 "/></g></g></g><g fill="#f04a00" fill-opacity="1"><g transform="translate(238.918642, 80.467455)"><g><path d="M 18.234375 0.625 C 14.304688 0.625 11.050781 0.0625 8.46875 -1.0625 C 5.894531 -2.1875 3.976562 -3.703125 2.71875 -5.609375 C 1.46875 -7.515625 0.84375 -9.65625 0.84375 -12.03125 L 0.84375 -13.421875 C 0.84375 -15.796875 1.46875 -17.9375 2.71875 -19.84375 C 3.976562 -21.75 5.894531 -23.265625 8.46875 -24.390625 C 11.050781 -25.523438 14.304688 -26.09375 18.234375 -26.09375 C 22.210938 -26.09375 25.492188 -25.523438 28.078125 -24.390625 C 30.660156 -23.265625 32.578125 -21.75 33.828125 -19.84375 C 35.085938 -17.9375 35.71875 -15.796875 35.71875 -13.421875 L 35.71875 -12.03125 C 35.71875 -9.65625 35.085938 -7.515625 33.828125 -5.609375 C 32.578125 -3.703125 30.660156 -2.1875 28.078125 -1.0625 C 25.492188 0.0625 22.210938 0.625 18.234375 0.625 Z M 18.28125 -7.84375 C 20.507812 -7.84375 22.144531 -8.285156 23.1875 -9.171875 C 24.238281 -10.054688 24.765625 -11.140625 24.765625 -12.421875 L 24.765625 -13.046875 C 24.765625 -14.328125 24.238281 -15.40625 23.1875 -16.28125 C 22.144531 -17.164062 20.507812 -17.609375 18.28125 -17.609375 C 16.039062 -17.609375 14.394531 -17.164062 13.34375 -16.28125 C 12.300781 -15.40625 11.78125 -14.328125 11.78125 -13.046875 L 11.78125 -12.421875 C 11.78125 -11.140625 12.300781 -10.054688 13.34375 -9.171875 C 14.394531 -8.285156 16.039062 -7.84375 18.28125 -7.84375 Z M 18.28125 -7.84375 "/></g></g></g><g fill="#f04a00" fill-opacity="1"><g transform="translate(275.447656, 80.467455)"><g><path d="M 24.09375 -12.9375 L 24.0625 -25.453125 L 34.078125 -25.453125 L 34.078125 0 L 24.484375 0 L 11.859375 -13.5 L 11.859375 0 L 1.890625 0 L 1.890625 -25.453125 L 12.59375 -25.453125 Z M 24.09375 -12.9375 "/></g></g></g><g fill="#f04a00" fill-opacity="1"><g transform="translate(82.810677, 97.40287)"><g><path d="M 7.390625 -4.40625 L 9.734375 -8.6875 L 14.140625 -8.6875 L 14.140625 0 L 10.734375 0 L 10.734375 -4.734375 L 8.125 0 L 6.671875 0 L 4.046875 -4.765625 L 4.0625 0 L 0.640625 0 L 0.640625 -8.6875 L 5.078125 -8.6875 Z M 7.390625 -4.40625 "/></g></g></g><g fill="#f04a00" fill-opacity="1"><g transform="translate(98.808211, 97.40287)"><g><path d="M 6.234375 0.21875 C 4.890625 0.21875 3.773438 0.0234375 2.890625 -0.359375 C 2.015625 -0.742188 1.359375 -1.257812 0.921875 -1.90625 C 0.492188 -2.5625 0.28125 -3.296875 0.28125 -4.109375 L 0.28125 -4.578125 C 0.28125 -5.390625 0.492188 -6.117188 0.921875 -6.765625 C 1.359375 -7.421875 2.015625 -7.941406 2.890625 -8.328125 C 3.773438 -8.710938 4.890625 -8.90625 6.234375 -8.90625 C 7.585938 -8.90625 8.703125 -8.710938 9.578125 -8.328125 C 10.460938 -7.941406 11.117188 -7.421875 11.546875 -6.765625 C 11.972656 -6.117188 12.1875 -5.390625 12.1875 -4.578125 L 12.1875 -4.109375 C 12.1875 -3.296875 11.972656 -2.5625 11.546875 -1.90625 C 11.117188 -1.257812 10.460938 -0.742188 9.578125 -0.359375 C 8.703125 0.0234375 7.585938 0.21875 6.234375 0.21875 Z M 6.234375 -2.671875 C 6.992188 -2.671875 7.550781 -2.820312 7.90625 -3.125 C 8.269531 -3.425781 8.453125 -3.796875 8.453125 -4.234375 L 8.453125 -4.453125 C 8.453125 -4.890625 8.269531 -5.257812 7.90625 -5.5625 C 7.550781 -5.863281 6.992188 -6.015625 6.234375 -6.015625 C 5.472656 -6.015625 4.914062 -5.863281 4.5625 -5.5625 C 4.207031 -5.257812 4.03125 -4.890625 4.03125 -4.453125 L 4.03125 -4.234375 C 4.03125 -3.796875 4.207031 -3.425781 4.5625 -3.125 C 4.914062 -2.820312 5.472656 -2.671875 6.234375 -2.671875 Z M 6.234375 -2.671875 "/></g></g></g><g fill="#f04a00" fill-opacity="1"><g transform="translate(112.482944, 97.40287)"><g><path d="M 5.515625 -3.671875 L 7.515625 -8.6875 L 11.296875 -8.6875 L 7.5625 0 L 3.484375 0 L -0.328125 -8.6875 L 3.46875 -8.6875 Z M 5.515625 -3.671875 "/></g></g></g><g fill="#f04a00" fill-opacity="1"><g transform="translate(124.644874, 97.40287)"><g><path d="M 4.328125 -8.6875 L 4.328125 0 L 0.65625 0 L 0.65625 -8.6875 Z M 4.328125 -8.6875 "/></g></g></g><g fill="#f04a00" fill-opacity="1"><g transform="translate(130.827086, 97.40287)"><g><path d="M 10.140625 0 L 0.640625 0 L 0.640625 -8.6875 L 9.984375 -8.6875 L 9.984375 -6.234375 L 4.140625 -6.234375 L 4.140625 -5.3125 L 9.625 -5.3125 L 9.625 -3.4375 L 4.140625 -3.4375 L 4.140625 -2.484375 L 10.140625 -2.484375 Z M 10.140625 0 "/></g></g></g><g fill="#f04a00" fill-opacity="1"><g transform="translate(142.548282, 97.40287)"><g/></g></g><g fill="#f04a00" fill-opacity="1"><g transform="translate(148.38505, 97.40287)"><g><path d="M 0.640625 -8.6875 L 6.609375 -8.6875 C 7.722656 -8.6875 8.609375 -8.5625 9.265625 -8.3125 C 9.929688 -8.0625 10.40625 -7.703125 10.6875 -7.234375 C 10.976562 -6.765625 11.125 -6.195312 11.125 -5.53125 C 11.125 -4.851562 10.976562 -4.273438 10.6875 -3.796875 C 10.40625 -3.316406 9.929688 -2.953125 9.265625 -2.703125 C 8.609375 -2.453125 7.722656 -2.328125 6.609375 -2.328125 L 4.171875 -2.328125 L 4.171875 0 L 0.640625 0 Z M 4.171875 -4.859375 L 6.484375 -4.859375 C 6.890625 -4.859375 7.164062 -4.910156 7.3125 -5.015625 C 7.457031 -5.117188 7.53125 -5.269531 7.53125 -5.46875 C 7.53125 -5.664062 7.457031 -5.816406 7.3125 -5.921875 C 7.164062 -6.023438 6.890625 -6.078125 6.484375 -6.078125 L 4.171875 -6.078125 Z M 4.171875 -4.859375 "/></g></g></g><g fill="#f04a00" fill-opacity="1"><g transform="translate(160.892422, 97.40287)"><g><path d="M 9.03125 0 L 0.640625 0 L 0.640625 -8.6875 L 4.328125 -8.6875 L 4.328125 -2.96875 L 9.03125 -2.96875 Z M 9.03125 0 "/></g></g></g><g fill="#f04a00" fill-opacity="1"><g transform="translate(171.303316, 97.40287)"><g><path d="M 7.578125 -8.6875 L 11.4375 0 L 7.796875 0 L 7.28125 -1.21875 L 3.828125 -1.21875 L 3.3125 0 L -0.328125 0 L 3.515625 -8.6875 Z M 6.4375 -3.578125 L 5.546875 -5.828125 L 4.65625 -3.578125 Z M 6.4375 -3.578125 "/></g></g></g><g fill="#f04a00" fill-opacity="1"><g transform="translate(183.608186, 97.40287)"><g><path d="M 3.78125 -5.765625 L 0.234375 -5.765625 L 0.234375 -8.6875 L 10.96875 -8.6875 L 10.96875 -5.765625 L 7.453125 -5.765625 L 7.453125 0 L 3.78125 0 Z M 3.78125 -5.765625 "/></g></g></g><g fill="#f04a00" fill-opacity="1"><g transform="translate(196.00836, 97.40287)"><g><path d="M 9.78125 -8.6875 L 9.78125 -6.015625 L 4.109375 -6.015625 L 4.109375 -5.0625 L 9.421875 -5.0625 L 9.421875 -2.609375 L 4.109375 -2.609375 L 4.109375 0 L 0.640625 0 L 0.640625 -8.6875 Z M 9.78125 -8.6875 "/></g></g></g><g fill="#f04a00" fill-opacity="1"><g transform="translate(207.324556, 97.40287)"><g><path d="M 6.234375 0.21875 C 4.890625 0.21875 3.773438 0.0234375 2.890625 -0.359375 C 2.015625 -0.742188 1.359375 -1.257812 0.921875 -1.90625 C 0.492188 -2.5625 0.28125 -3.296875 0.28125 -4.109375 L 0.28125 -4.578125 C 0.28125 -5.390625 0.492188 -6.117188 0.921875 -6.765625 C 1.359375 -7.421875 2.015625 -7.941406 2.890625 -8.328125 C 3.773438 -8.710938 4.890625 -8.90625 6.234375 -8.90625 C 7.585938 -8.90625 8.703125 -8.710938 9.578125 -8.328125 C 10.460938 -7.941406 11.117188 -7.421875 11.546875 -6.765625 C 11.972656 -6.117188 12.1875 -5.390625 12.1875 -4.578125 L 12.1875 -4.109375 C 12.1875 -3.296875 11.972656 -2.5625 11.546875 -1.90625 C 11.117188 -1.257812 10.460938 -0.742188 9.578125 -0.359375 C 8.703125 0.0234375 7.585938 0.21875 6.234375 0.21875 Z M 6.234375 -2.671875 C 6.992188 -2.671875 7.550781 -2.820312 7.90625 -3.125 C 8.269531 -3.425781 8.453125 -3.796875 8.453125 -4.234375 L 8.453125 -4.453125 C 8.453125 -4.890625 8.269531 -5.257812 7.90625 -5.5625 C 7.550781 -5.863281 6.992188 -6.015625 6.234375 -6.015625 C 5.472656 -6.015625 4.914062 -5.863281 4.5625 -5.5625 C 4.207031 -5.257812 4.03125 -4.890625 4.03125 -4.453125 L 4.03125 -4.234375 C 4.03125 -3.796875 4.207031 -3.425781 4.5625 -3.125 C 4.914062 -2.820312 5.472656 -2.671875 6.234375 -2.671875 Z M 6.234375 -2.671875 "/></g></g></g><g fill="#f04a00" fill-opacity="1"><g transform="translate(220.999293, 97.40287)"><g><path d="M 10.96875 -1.625 L 10.96875 -1.078125 C 10.96875 -0.816406 10.992188 -0.609375 11.046875 -0.453125 C 11.097656 -0.296875 11.195312 -0.144531 11.34375 0 L 7.46875 0 C 7.34375 -0.125 7.242188 -0.269531 7.171875 -0.4375 C 7.109375 -0.601562 7.078125 -0.816406 7.078125 -1.078125 L 7.078125 -1.90625 C 7.078125 -2.207031 7.03125 -2.40625 6.9375 -2.5 C 6.851562 -2.601562 6.675781 -2.65625 6.40625 -2.65625 L 4.140625 -2.65625 L 4.140625 0 L 0.640625 0 L 0.640625 -8.6875 L 6.984375 -8.6875 C 8.023438 -8.6875 8.851562 -8.570312 9.46875 -8.34375 C 10.09375 -8.125 10.539062 -7.816406 10.8125 -7.421875 C 11.09375 -7.023438 11.234375 -6.582031 11.234375 -6.09375 C 11.234375 -5.601562 11.113281 -5.195312 10.875 -4.875 C 10.644531 -4.5625 10.34375 -4.316406 9.96875 -4.140625 C 9.601562 -3.960938 9.222656 -3.84375 8.828125 -3.78125 L 8.828125 -3.765625 C 9.597656 -3.679688 10.144531 -3.476562 10.46875 -3.15625 C 10.800781 -2.84375 10.96875 -2.332031 10.96875 -1.625 Z M 4.140625 -4.875 L 6.578125 -4.875 C 7.003906 -4.875 7.285156 -4.925781 7.421875 -5.03125 C 7.566406 -5.132812 7.640625 -5.285156 7.640625 -5.484375 C 7.640625 -5.679688 7.566406 -5.832031 7.421875 -5.9375 C 7.273438 -6.039062 6.992188 -6.09375 6.578125 -6.09375 L 4.140625 -6.09375 Z M 4.140625 -4.875 "/></g></g></g><g fill="#f04a00" fill-opacity="1"><g transform="translate(233.804472, 97.40287)"><g><path d="M 7.390625 -4.40625 L 9.734375 -8.6875 L 14.140625 -8.6875 L 14.140625 0 L 10.734375 0 L 10.734375 -4.734375 L 8.125 0 L 6.671875 0 L 4.046875 -4.765625 L 4.0625 0 L 0.640625 0 L 0.640625 -8.6875 L 5.078125 -8.6875 Z M 7.390625 -4.40625 "/></g></g></g></svg>